Coordinates
version=1
nRows=5
nColumns=107
inDegrees=yes

Units are S.I. units (second, meters, Newtons, ...)
If the header above contains a line with 'inDegrees', this indicates whether rotational values are in degrees (yes) or radians (no).

endheader
time	sternoclavicular_r2	sternoclavicular_r3	unrotscap_r3	unrotscap_r2	acromioclavicular_r2	acromioclavicular_r3	acromioclavicular_r1	unrothum_r1	unrothum_r3	unrothum_r2	elv_angle	shoulder_elv	shoulder1_r2	shoulder_rot	elbow_flexion	pro_sup	deviation	flexion	proximal_distal_r1	proximal_distal_r3	cmc_flexion	cmc_abduction	mp_flexion	ip_flexion	mcp2_flexion	mcp2_abduction	pm2_flexion	md2_flexion	mcp3_flexion	mcp3_abduction	pm3_flexion	md3_flexion	mcp4_flexion	mcp4_abduction	pm4_flexion	md4_flexion	mcp5_flexion	mcp5_abduction	pm5_flexion	md5_flexion	bicpt_tx	bicpt_ty	bicpt_tz	bicpt2_tx	bicpt2_ty	bicpt2_tz	ptpt_tx	ptpt_ty	ptpt_tz	FCUpt_tx	FCUpt_ty	FCUpt_tz	EDCpt_tx	EDCpt_ty	EDCpt_tz	APLpt_tx	APLpt_ty	APLpt_tz	FPLpt_tx	FPLpt_ty	FPLpt_tz	FPLpt2_tx	FPLpt2_ty	FPLpt2_tz	PEC1pt2_tx	PEC1pt2_ty	PEC1pt2_tz	PEC1pt3_tx	PEC1pt3_ty	PEC1pt3_tz	PEC2pt2_tx	PEC2pt2_ty	PEC2pt2_tz	PEC2pt3_tx	PEC2pt3_ty	PEC2pt3_tz	PEC3pt2_tx	PEC3pt2_ty	PEC3pt2_tz	PEC3pt3_tx	PEC3pt3_ty	PEC3pt3_tz	DELT2pt2a_tx	DELT2pt2a_ty	DELT2pt2a_tz	DELT2pt2_tx	DELT2pt2_ty	DELT2pt2_tz	LAT1pt2_tx	LAT1pt2_ty	LAT1pt2_tz	LAT1pt3_tx	LAT1pt3_ty	LAT1pt3_tz	LAT2pt2_tx	LAT2pt2_ty	LAT2pt2_tz	LAT2pt3_tx	LAT2pt3_ty	LAT2pt3_tz	LAT3pt2_tx	LAT3pt2_ty	LAT3pt2_tz	LAT3pt3_tx	LAT3pt3_ty	LAT3pt3_tz
      1.30000000	     -0.31968643	      0.13540408	     -0.13540408	      0.31968643	     -0.06473000	      0.52312508	      0.23514112	     -0.23514112	     -0.52312508	      0.06473000	    100.93083221	     75.68860323	     -1.76157534	    -29.90880358	     28.71563351	     67.72393538	      0.27460237	     -0.40240611	      0.31095347	     -0.20120306	     29.55925603	    -21.16629769	      4.41927007	      4.75637536	     -3.00505417	     -4.50013754	     16.22034870	    -23.51225596	     -9.13347503	     -4.69671784	      9.25267401	     11.76568991	    -15.01720083	     -2.69641255	      0.79145059	     20.51309036	    -30.20136672	     -5.00029324	     13.08940886	      4.95634508	      0.00084982	     -0.03089125	     -0.00483013	      0.01574703	     -0.01800074	     -0.00397164	      0.00254597	     -0.06813569	     -0.00550553	      0.01069006	     -0.18280922	     -0.00029382	     -0.00812685	      0.00262663	     -0.00026089	      0.00027611	      0.00011044	      0.00055222	      0.00035342	      0.00106027	      0.00059640	     -0.00000793	     -0.00025358	     -0.00030430	      0.00248091	      0.00870420	      0.00605509	     -0.00811551	      0.01959495	     -0.01858577	      0.00248091	      0.00870420	      0.00605509	      0.00054664	      0.01816528	     -0.00954518	      0.00392979	      0.00484029	      0.01592310	      0.00000000	      0.00766077	      0.00000000	     -0.00710632	     -0.03284047	     -0.00631598	      0.01883754	     -0.00075398	     -0.00745446	     -0.00088303	      0.01480134	     -0.00605509	      0.00243886	      0.02136102	     -0.01766069	     -0.00592895	      0.01282502	     -0.00542435	     -0.01236248	      0.02707972	     -0.03031752	     -0.02321119	      0.01433880	     -0.00727452	     -0.01539003	      0.03128465	     -0.03788638
      1.33333333	     -0.31969647	      0.13540833	     -0.13540833	      0.31969647	     -0.06473203	      0.52314151	      0.23514851	     -0.23514851	     -0.52314151	      0.06473203	    100.80277403	     75.69098036	     -1.75934030	    -29.69283487	     28.94333719	     67.32128795	      0.27467705	     -0.40371560	      0.31102113	     -0.20185780	     29.16510255	    -21.32891465	      4.19435104	      4.13645041	     -4.02724938	     -4.57790691	     16.51010343	    -23.85246127	    -10.48379780	     -4.68935404	      9.43269843	     12.11984721	    -16.04067359	     -2.40481949	      0.30308619	     21.05430095	    -31.15564387	     -4.57007921	     12.75534835	      4.92956679	      0.00085736	     -0.03091735	     -0.00483434	      0.01577160	     -0.01806260	     -0.00403014	      0.00257572	     -0.06811645	     -0.00547309	      0.01064610	     -0.18282074	     -0.00029930	     -0.00807854	      0.00260684	     -0.00025200	      0.00027656	      0.00011063	      0.00055313	      0.00035400	      0.00106201	      0.00059738	     -0.00000735	     -0.00025657	     -0.00030789	      0.00248098	      0.00870447	      0.00605528	     -0.00811576	      0.01959557	     -0.01858636	      0.00248098	      0.00870447	      0.00605528	      0.00054666	      0.01816585	     -0.00954548	      0.00392988	      0.00484045	      0.01592332	      0.00000000	      0.00766125	      0.00000000	     -0.00710655	     -0.03284150	     -0.00631638	      0.01874122	     -0.00074662	     -0.00734982	     -0.00088306	      0.01480180	     -0.00605528	      0.00243893	      0.02136169	     -0.01766124	     -0.00592913	      0.01282543	     -0.00542452	     -0.01236287	      0.02708057	     -0.03031847	     -0.02321192	      0.01433925	     -0.00727475	     -0.01539051	      0.03128563	     -0.03788757
      1.36666667	     -0.31979775	      0.13545124	     -0.13545124	      0.31979775	     -0.06475254	      0.52330725	      0.23522301	     -0.23522301	     -0.52330725	      0.06475254	    100.73691443	     75.71496108	     -1.75819084	    -29.52657969	     29.02128847	     67.00605105	      0.27365010	     -0.40685791	      0.31008832	     -0.20342896	     29.03158061	    -21.44883465	      4.15925733	      3.68387286	     -5.05376969	     -4.66458038	     16.66057458	    -24.18931937	    -11.40205012	     -4.70110036	      9.52779996	     12.36838354	    -16.82487821	     -2.19403236	     -0.05150969	     21.49726065	    -31.81590572	     -4.24050378	     12.54790938	      4.92511941	      0.00085993	     -0.03092628	     -0.00483578	      0.01579061	     -0.01808378	     -0.00407580	      0.00259901	     -0.06810139	     -0.00544770	      0.01061172	     -0.18282973	     -0.00030351	     -0.00804071	      0.00259137	     -0.00024509	      0.00027765	      0.00011106	      0.00055529	      0.00035539	      0.00106616	      0.00059972	     -0.00000715	     -0.00025755	     -0.00030907	      0.00248177	      0.00870723	      0.00605720	     -0.00811833	      0.01960178	     -0.01859225	      0.00248177	      0.00870723	      0.00605720	      0.00054683	      0.01817161	     -0.00954851	      0.00393079	      0.00484198	      0.01592557	      0.00000000	      0.00766614	      0.00000000	     -0.00710880	     -0.03285191	     -0.00632044	      0.01866665	     -0.00074097	     -0.00726967	     -0.00088334	      0.01480649	     -0.00605720	      0.00243971	      0.02136846	     -0.01766684	     -0.00593101	      0.01282949	     -0.00542624	     -0.01236679	      0.02708915	     -0.03032807	     -0.02321927	      0.01434379	     -0.00727706	     -0.01539539	      0.03129554	     -0.03789958
      1.40000000	     -0.31986465	      0.13547957	     -0.13547957	      0.31986465	     -0.06476609	      0.52341672	      0.23527222	     -0.23527222	     -0.52341672	      0.06476609	    100.67759194	     75.73080007	     -1.75715546	    -29.40615665	     29.09970452	     66.69078519	      0.27114625	     -0.40905039	      0.30780682	     -0.20452519	     28.91361457	    -21.48825164	      4.15620659	      3.28333059	     -5.89163731	     -4.68639092	     16.82487646	    -24.47572275	    -12.10426819	     -4.69266945	      9.63874725	     12.60824942	    -17.34845724	     -2.04744018	     -0.27194017	     21.91137743	    -32.16488055	     -4.01279938	     12.46539481	      4.93264329	      0.00086253	     -0.03093527	     -0.00483722	      0.01580938	     -0.01810508	     -0.00412132	      0.00262230	     -0.06808633	     -0.00542230	      0.01057737	     -0.18283869	     -0.00030765	     -0.00800288	      0.00257593	     -0.00023824	      0.00027839	      0.00011136	      0.00055679	      0.00035634	      0.00106903	      0.00060133	     -0.00000697	     -0.00025841	     -0.00031009	      0.00248229	      0.00870905	      0.00605847	     -0.00812003	      0.01960588	     -0.01859613	      0.00248229	      0.00870905	      0.00605847	      0.00054695	      0.01817541	     -0.00955050	      0.00393139	      0.00484299	      0.01592705	      0.00000000	      0.00766937	      0.00000000	     -0.00711029	     -0.03285878	     -0.00632312	      0.01861241	     -0.00073688	     -0.00721182	     -0.00088353	      0.01480959	     -0.00605847	      0.00244022	      0.02137293	     -0.01767053	     -0.00593225	      0.01283217	     -0.00542738	     -0.01236937	      0.02709482	     -0.03033442	     -0.02322413	      0.01434679	     -0.00727858	     -0.01539861	      0.03130209	     -0.03790750
      1.43333333	     -0.32007790	      0.13556989	     -0.13556989	      0.32007790	     -0.06480926	      0.52376567	      0.23542906	     -0.23542906	     -0.52376567	      0.06480926	    100.70384929	     75.78128679	     -1.75761374	    -29.30612238	     28.94215199	     66.52816904	      0.26944502	     -0.41830737	      0.30625126	     -0.20915368	     29.31956952	    -21.59086820	      4.52635288	      3.32310832	     -6.74418112	     -4.63352943	     16.65073972	    -24.98640083	    -12.31355834	     -4.66374235	      9.45086670	     12.41274280	    -17.60231165	     -2.06489338	     -0.30067370	     22.05943548	    -32.22635373	     -3.85145674	     12.56477421	      5.01258510	      0.00085732	     -0.03091721	     -0.00483432	      0.01581898	     -0.01806228	     -0.00414475	      0.00263432	     -0.06807856	     -0.00540920	      0.01055966	     -0.18284330	     -0.00030975	     -0.00798336	      0.00256798	     -0.00023473	      0.00028147	      0.00011259	      0.00056294	      0.00036028	      0.00108084	      0.00060797	     -0.00000758	     -0.00025545	     -0.00030654	      0.00248394	      0.00871486	      0.00606251	     -0.00812544	      0.01961895	     -0.01860853	      0.00248394	      0.00871486	      0.00606251	      0.00054731	      0.01818752	     -0.00955687	      0.00393331	      0.00484622	      0.01593177	      0.00000000	      0.00767967	      0.00000000	     -0.00711503	     -0.03288069	     -0.00633168	      0.01856720	     -0.00073348	     -0.00716390	     -0.00088412	      0.01481946	     -0.00606251	      0.00244184	      0.02138718	     -0.01768232	     -0.00593621	      0.01284073	     -0.00543100	     -0.01237762	      0.02711288	     -0.03035464	     -0.02323961	      0.01435636	     -0.00728343	     -0.01540887	      0.03132296	     -0.03793278
